<svg xmlns="http://www.w3.org/2000/svg" width="40" height="40" fill="none" viewBox="0 0 40 40">
    <circle cx="20" cy="20" r="20" fill="url(#a)"/>
    <path fill="#fff" fill-rule="evenodd" d="M25.937 23.24h2.58c.658 0 1.289.266 1.755.738.465.473.727 1.113.728 1.782v1.44c0 .477-.188.935-.52 1.272a1.763 1.763 0 0 1-1.254.528h-6.387a.35.35 0 0 1-.195-.06l-12.89-8.6a1.793 1.793 0 0 1-.729-1.172 1.83 1.83 0 0 1 .304-1.35l4.424-6.284a1.245 1.245 0 0 1 1.755-.297 1.246 1.246 0 0 1 .532 1.108c-.102 1.012.18 3.229 1.977 4.38 1.75 1.123 4.22.026 5.003-.376l-.623-1.978a.365.365 0 0 1 .023-.274.35.35 0 0 1 .477-.155.359.359 0 0 1 .176.21l.711 2.258.004.012.624 1.98-2.02.66a.357.357 0 0 0-.191.182.365.365 0 0 0 .149.469.35.35 0 0 0 .259.034l2.02-.658.564 1.793-1.963.64a.357.357 0 0 0-.191.182.365.365 0 0 0 .149.47.35.35 0 0 0 .26.033l1.961-.64.528 1.672zM12.194 25.4H9.355a.352.352 0 0 1-.25-.106.363.363 0 0 1 0-.509.352.352 0 0 1 .25-.105h2.839c.094 0 .184.038.25.105a.363.363 0 0 1 0 .51.352.352 0 0 1-.25.105zm4.613 3.6H9.355a.352.352 0 0 1-.25-.105.363.363 0 0 1 0-.51.352.352 0 0 1 .25-.105h7.452c.094 0 .184.038.25.105a.363.363 0 0 1 0 .51.352.352 0 0 1-.25.105z" clip-rule="evenodd"/>
    <defs>
        <linearGradient id="a" x1="1.375" x2="34.064" y1="40" y2="44.373" gradientUnits="userSpaceOnUse">
            <stop stop-color="#6DDEF4"/>
            <stop offset="1" stop-color="#5E88F5"/>
        </linearGradient>
    </defs>
</svg>
