<svg xmlns="http://www.w3.org/2000/svg" width="40" height="40" fill="none" viewBox="0 0 40 40">
    <circle cx="20" cy="20" r="20" fill="url(#a)"/>
    <path fill="#fff" fill-rule="evenodd" d="M20 10c2.917 0 5.333 2.167 5.833 5A4.126 4.126 0 0 1 30 19.167a4.126 4.126 0 0 1-4.167 4.166c-.075 0-.166-.016-.267-.035-.124-.023-.262-.048-.4-.048-1.083 2.083-3.25 3.417-5.583 3.417-2.666 0-5.083-1.75-5.916-4.334C11.5 21.667 10 19.75 10 17.5c0-2.75 2.25-5 5-5h.25A5.703 5.703 0 0 1 20 10zm-2.417 10.417c.167.25.417.416.75.416h3.334c.5 0 .833-.333.833-.833 0-.5-.333-.833-.833-.833h-1.834l1.75-2.917a.757.757 0 0 0 0-.833c-.166-.25-.416-.417-.75-.417h-2.5c-.5 0-.833.333-.833.833 0 .5.333.834.833.834h1l-1.75 2.916a.757.757 0 0 0 0 .834z" clip-rule="evenodd"/>
    <path fill="#fff" d="M15 27.5a2.5 2.5 0 1 1-5 0 2.5 2.5 0 0 1 5 0z"/>
    <defs>
        <linearGradient id="a" x1="40" x2="0" y2="40" gradientUnits="userSpaceOnUse">
            <stop stop-color="#44C5C7"/>
            <stop offset="1" stop-color="#9ADB67"/>
        </linearGradient>
    </defs>
</svg>
