<svg xmlns="http://www.w3.org/2000/svg" width="40" height="40" fill="none" viewBox="0 0 40 40">
    <circle cx="20" cy="20" r="20" fill="url(#a)"/>
    <path fill="#fff" d="M28 27.026h.09s-1.612-4.868-2.06-5.977c-.358-.955-.597-3.296-2.448-4.067-1.672-.677-2.328-1.386-2.268-1.91.626-.585 1.044-1.57 1.044-2.68 0-1.787-1.044-3.235-2.358-3.235-.448 0-.895.185-1.254.493a.237.237 0 0 0-.119.123 136.651 136.651 0 0 0-.209.216c-.478.585-.776 1.448-.776 2.403 0 1.047.358 1.94.895 2.526.21.524-.418 1.294-2.238 2.034-1.821.739-2.12 2.834-2.418 3.85-.358 1.202-2.06 6.193-2.06 6.193h.09a1.89 1.89 0 0 0-.657.431c-.388.37-.627.863-.627 1.418 0 1.109.955 2.002 2.12 2.002h14.567c.596 0 1.104-.216 1.492-.585.388-.37.627-.863.627-1.418-.03-.616-.627-1.478-1.433-1.817zm-11.224-.185H14.03l2.746-6.377v6.377zm6.448-6.347s2.507 6.1 2.776 6.378h-2.776v-6.378z"/>
    <defs>
        <linearGradient id="a" x2="40" y1="40" gradientUnits="userSpaceOnUse">
            <stop stop-color="#BD91DC"/>
            <stop offset="1" stop-color="#666AD4"/>
        </linearGradient>
    </defs>
</svg>
