<svg xmlns="http://www.w3.org/2000/svg" width="40" height="40" fill="none" viewBox="0 0 40 40">
    <circle cx="20" cy="20" r="20" fill="url(#a)"/>
    <path fill="#fff" fill-rule="evenodd" d="M20.001 24.924a.643.643 0 0 1-.43-.164c-.158-.142-3.873-3.518-3.873-7.798s3.715-7.656 3.873-7.798a.643.643 0 0 1 .86 0c.158.142 3.873 3.518 3.873 7.798s-3.715 7.656-3.873 7.798a.643.643 0 0 1-.43.164zm-4.132.828c-2.05-.52-3.73-1.426-4.997-2.692a8.562 8.562 0 0 1-.37-.395 9.7 9.7 0 0 0-1.337 1.185.645.645 0 0 0 0 .86c.103.114 2.547 2.803 5.658 2.803 1.528 0 2.894-.648 3.901-1.32a15.717 15.717 0 0 1-2.855-.441zm13.26-2.692a8.72 8.72 0 0 0 .37-.395 9.682 9.682 0 0 1 1.338 1.185c.219.244.219.615 0 .86-.103.114-2.546 2.803-5.658 2.803-1.528 0-2.894-.648-3.901-1.32.76-.048 1.768-.165 2.856-.441 2.048-.52 3.73-1.426 4.996-2.692zm-9.558 7.776a10.142 10.142 0 0 1-1.978-2.589A10.388 10.388 0 0 0 20 26.866a10.386 10.386 0 0 0 2.408 1.381 10.145 10.145 0 0 1-1.978 2.589.643.643 0 0 1-.86 0zm7.282-18.522a12.767 12.767 0 0 0-.67-1.835.644.644 0 0 0-.795-.329c-.046.016-.784.279-1.77.823.427.649.788 1.309 1.08 1.971.736-.286 1.47-.489 2.155-.63zm-12.24-2.164c.047.017.786.28 1.771.823a13.52 13.52 0 0 0-1.08 1.971 13.543 13.543 0 0 0-2.155-.63c.313-1.082.65-1.79.67-1.835a.644.644 0 0 1 .795-.329zm10.98 6.812c0 1.136-.224 2.301-.667 3.463-.347.911-.829 1.823-1.432 2.712-.46.678-.926 1.245-1.311 1.674 1.775-.23 4.25-.878 6.035-2.663 3.027-3.026 2.787-8.04 2.775-8.252a.645.645 0 0 0-.608-.608 7.816 7.816 0 0 0-.401-.01c-.835 0-2.831.093-4.833.873.294.945.442 1.888.442 2.811zm-9.084 6.175c.46.678.926 1.245 1.31 1.675-1.774-.23-4.25-.879-6.035-2.664-3.027-3.026-2.787-8.04-2.775-8.252a.645.645 0 0 1 .608-.608c.029-.002.17-.01.402-.01.835 0 2.83.093 4.832.873a9.463 9.463 0 0 0-.442 2.811c0 1.136.224 2.301.667 3.463.347.911.83 1.823 1.433 2.712z" clip-rule="evenodd"/>
    <defs>
        <linearGradient id="a" x2="40" y1="40" gradientUnits="userSpaceOnUse">
            <stop stop-color="#ED8AC6"/>
            <stop offset="1" stop-color="#FF2E4A"/>
        </linearGradient>
    </defs>
</svg>
